HIERARCHY
ROOT hip
{
  OFFSET 0 0 0
  CHANNELS 6 Xposition Yposition Zposition Zrotation Yrotation Xrotation
  JOINT abdomen
  {
    OFFSET 0 20.6881 -0.73152
    CHANNELS 3 Zrotation Xrotation Yrotation
    JOINT chest
    {
      OFFSET 0 11.7043 -0.48768
      CHANNELS 3 Zrotation Xrotation Yrotation
      JOINT neck
      {
        OFFSET 0 22.1894 -2.19456
        CHANNELS 3 Zrotation Xrotation Yrotation
        JOINT head
        {
          OFFSET -0.24384 7.07133 1.2192
          CHANNELS 3 Zrotation Xrotation Yrotation
          JOINT leftEye
          {
            OFFSET 4.14528 8.04674 8.04672
            CHANNELS 3 Zrotation Xrotation Yrotation
            End Site
            {
              OFFSET 1 0 0
            }
          }
          JOINT rightEye
          {
            OFFSET -3.6576 8.04674 8.04672
            CHANNELS 3 Zrotation Xrotation Yrotation
            End Site
            {
              OFFSET 1 0 0
            }
          }
        }
      }
      JOINT rCollar
      {
        OFFSET -2.68224 19.2634 -4.8768
        CHANNELS 3 Zrotation Xrotation Yrotation
        JOINT rShldr
        {
          OFFSET -8.77824 -1.95073 1.46304
          CHANNELS 3 Zrotation Xrotation Yrotation
          JOINT rForeArm
          {
            OFFSET -28.1742 -1.7115 0.48768
            CHANNELS 3 Zrotation Xrotation Yrotation
            JOINT rHand
            {
              OFFSET -22.5879 0.773209 7.07136
              CHANNELS 3 Zrotation Xrotation Yrotation
              JOINT rThumb1
              {
                OFFSET -1.2192 -0.487915 3.41376
                CHANNELS 3 Zrotation Xrotation Yrotation
                JOINT rThumb2
                {
                  OFFSET -3.37035 -0.52449 3.41376
                  CHANNELS 3 Zrotation Xrotation Yrotation
                  End Site
                  {
                    OFFSET -1.78271 -1.18214 1.43049
                  }
                }
              }
              JOINT rIndex1
              {
                OFFSET -7.75947 0.938293 5.60832
                CHANNELS 3 Zrotation Xrotation Yrotation
                JOINT rIndex2
                {
                  OFFSET -2.54057 -0.884171 1.56538
                  CHANNELS 3 Zrotation Xrotation Yrotation
                  End Site
                  {
                    OFFSET -1.62519 -0.234802 1.16502
                  }
                }
              }
              JOINT rMid1
              {
                OFFSET -8.24714 1.18213 3.41376
                CHANNELS 3 Zrotation Xrotation Yrotation
                JOINT rMid2
                {
                  OFFSET -3.10165 -0.590103 1.0647
                  CHANNELS 3 Zrotation Xrotation Yrotation
                  End Site
                  {
                    OFFSET -2.48547 -0.328903 0.83742
                  }
                }
              }
              JOINT rRing1
              {
                OFFSET -8.82822 0.546677 1.51678
                CHANNELS 3 Zrotation Xrotation Yrotation
                JOINT rRing2
                {
                  OFFSET -2.60934 -0.819778 -0.0198488
                  CHANNELS 3 Zrotation Xrotation Yrotation
                  End Site
                  {
                    OFFSET -2.33842 -0.294052 0.168128
                  }
                }
              }
              JOINT rPinky1
              {
                OFFSET -8.27202 -0.0477905 -0.4584
                CHANNELS 3 Zrotation Xrotation Yrotation
                JOINT rPinky2
                {
                  OFFSET -1.82734 -0.647385 -0.700984
                  CHANNELS 3 Zrotation Xrotation Yrotation
                  End Site
                  {
                    OFFSET -1.69225 -0.51767 -0.607171
                  }
                }
              }
            }
          }
        }
      }
      JOINT lCollar
      {
        OFFSET 2.68224 19.2634 -4.8768
        CHANNELS 3 Zrotation Xrotation Yrotation
        JOINT lShldr
        {
          OFFSET 8.77824 -1.95073 1.46304
          CHANNELS 3 Zrotation Xrotation Yrotation
          JOINT lForeArm
          {
            OFFSET 28.1742 -1.7115 0.48768
            CHANNELS 3 Zrotation Xrotation Yrotation
            JOINT lHand
            {
              OFFSET 22.5879 0.773209 7.07136
              CHANNELS 3 Zrotation Xrotation Yrotation
              JOINT lThumb1
              {
                OFFSET 1.2192 -0.487915 3.41376
                CHANNELS 3 Zrotation Xrotation Yrotation
                JOINT lThumb2
                {
                  OFFSET 3.37035 -0.52449 3.41376
                  CHANNELS 3 Zrotation Xrotation Yrotation
                  End Site
                  {
                    OFFSET 1.78271 -1.18214 1.43049
                  }
                }
              }
              JOINT lIndex1
              {
                OFFSET 7.75947 0.938293 5.60832
                CHANNELS 3 Zrotation Xrotation Yrotation
                JOINT lIndex2
                {
                  OFFSET 2.54057 -0.884171 1.56538
                  CHANNELS 3 Zrotation Xrotation Yrotation
                  End Site
                  {
                    OFFSET 1.62519 -0.234802 1.16502
                  }
                }
              }
              JOINT lMid1
              {
                OFFSET 8.24714 1.18213 3.41376
                CHANNELS 3 Zrotation Xrotation Yrotation
                JOINT lMid2
                {
                  OFFSET 3.10165 -0.590103 1.0647
                  CHANNELS 3 Zrotation Xrotation Yrotation
                  End Site
                  {
                    OFFSET 2.48547 -0.328903 0.83742
                  }
                }
              }
              JOINT lRing1
              {
                OFFSET 8.82822 0.546677 1.51678
                CHANNELS 3 Zrotation Xrotation Yrotation
                JOINT lRing2
                {
                  OFFSET 2.60934 -0.819778 -0.0198488
                  CHANNELS 3 Zrotation Xrotation Yrotation
                  End Site
                  {
                    OFFSET 2.33842 -0.294052 0.168128
                  }
                }
              }
              JOINT lPinky1
              {
                OFFSET 8.27202 -0.0477905 -0.4584
                CHANNELS 3 Zrotation Xrotation Yrotation
                JOINT lPinky2
                {
                  OFFSET 1.82734 -0.647385 -0.700984
                  CHANNELS 3 Zrotation Xrotation Yrotation
                  End Site
                  {
                    OFFSET 1.69225 -0.51767 -0.607171
                  }
                }
              }
            }
          }
        }
      }
    }
  }
  JOINT rButtock
  {
    OFFSET -8.77824 4.35084 1.2192
    CHANNELS 3 Zrotation Xrotation Yrotation
    JOINT rThigh
    {
      OFFSET 0 -1.70687 -2.19456
      CHANNELS 3 Zrotation Xrotation Yrotation
      JOINT rShin
      {
        OFFSET 0 -36.8199 0.73152
        CHANNELS 3 Zrotation Xrotation Yrotation
        JOINT rFoot
        {
          OFFSET 0.73152 -45.1104 -5.12064
          CHANNELS 3 Zrotation Xrotation Yrotation
          End Site
          {
            OFFSET -1.1221 -3.69964 12.103
          }
        }
      }
    }
  }
  JOINT lButtock
  {
    OFFSET 8.77824 4.35084 1.2192
    CHANNELS 3 Zrotation Xrotation Yrotation
    JOINT lThigh
    {
      OFFSET 0 -1.70687 -2.19456
      CHANNELS 3 Zrotation Xrotation Yrotation
      JOINT lShin
      {
        OFFSET 0 -36.8199 0.73152
        CHANNELS 3 Zrotation Xrotation Yrotation
        JOINT lFoot
        {
          OFFSET -0.73152 -45.1104 -5.12064
          CHANNELS 3 Zrotation Xrotation Yrotation
          End Site
          {
            OFFSET 1.1221 -3.69964 12.103
          }
        }
      }
    }
  }
}
MOTION
Frames:	8
Frame Time:	0.00833333
9.33212 85.0114 -170.329 0.0 0.0 0.0 0.0256065 -6.19229e-06 0.000728842 0.00706481 8.63063e-06 0.00122382 2.37884e-16 0.0 -5.04727e-18 7.14382e-16 3.18055e-15 -1.55301e-17 -0.0 0.0 0.0 -0.0 0.0 0.0 1.97462e-16 -5.82377e-19 1.98785e-16 3.94599e-15 1.18028e-16 7.95139e-16 4.17945e-14 -1.19271e-14 1.59028e-14 4.93533e-13 1.73191e-14 -3.49861e-14 1.15889e-12 9.7367e-15 -2.22639e-14 1.99023e-12 1.90833e-14 -3.97569e-14 1.16249e-12 1.15295e-14 -3.18055e-14 7.73091 5.47488 0.417314 1.15817e-12 9.54166e-15 -1.59028e-14 2.90554 0.965183 0.102902 1.16668e-12 9.83984e-15 -1.90833e-14 10.2786 0.731801 0.0259123 1.15693e-12 1.07344e-14 -6.36111e-15 2.22167 -0.733487 -0.20892 1.33082e-18 -7.76503e-19 -1.98785e-16 8.21249e-16 -1.73937e-16 -7.95139e-16 4.43787e-14 9.74045e-15 -2.54444e-14 4.8783e-13 -2.57675e-14 2.54444e-14 1.15875e-12 -3.3002e-14 -2.22639e-14 2.01369e-12 -5.40694e-14 -2.70347e-14 1.15414e-12 -3.10104e-14 -3.18055e-15 -7.73091 5.47488 -0.417314 1.15852e-12 -3.26007e-14 -1.59028e-14 -2.90554 0.965183 -0.102902 1.15356e-12 -3.26007e-14 -1.82882e-14 -10.2786 0.731801 -0.0259123 1.16945e-12 -3.06128e-14 -2.8625e-14 -2.22167 -0.733487 0.20892 -2.03217e-16 0.0 -3.88251e-19 0.5123 -3.13364 -0.0420885 -0.00562802 0.1231 -0.0495524 -0.4928 3.00963 0.11736 2.03217e-16 0.0 3.88251e-19 -0.473325 -3.03453 0.0397104 0.00592198 -0.0564352 0.052175 0.492505 3.09005 -0.118955
11.0547 84.4739 -170.5 7.1446 1.6195 -0.0533 -1.54976 1.98617 -1.17157 1.47645 -0.358869 -0.334974 -2.4435 0.135681 -0.815905 2.19665 -0.94587 -0.889649 -0.0 0.0 0.0 -0.0 0.0 0.0 5.76466e-14 6.43441e-15 -3.18366e-15 22.2048 0.253408 -0.94524 -3.47052 -1.45239 5.54844 0.0285427 3.74903 0.522824 -5.01748e-10 -1.24391e-12 -3.07923e-10 -8.70335e-10 -9.60677e-13 -5.26103e-10 -5.01746e-10 -1.24147e-12 -3.07934e-10 7.73091 5.47488 0.417314 -5.01749e-10 -1.24387e-12 -3.07919e-10 2.90554 0.965183 0.102902 -5.01742e-10 -1.24376e-12 -3.0792e-10 10.2786 0.731801 0.0259123 -5.01751e-10 -1.24305e-12 -3.07909e-10 2.22167 -0.733487 -0.20892 5.74842e-14 6.43584e-15 -3.55638e-15 -20.8796 7.51326 -4.02406 5.42579 -2.76496 -8.12401 -0.00351921 1.31624 -0.184809 -2.64619e-10 -7.67706e-10 -3.27832e-10 -4.58088e-10 -1.32708e-09 -5.65826e-10 -2.64625e-10 -7.67704e-10 -3.27817e-10 -7.73091 5.47488 -0.417314 -2.64623e-10 -7.67708e-10 -3.27831e-10 -2.90554 0.965183 -0.102902 -2.64625e-10 -7.67704e-10 -3.27831e-10 -10.2786 0.731801 -0.0259123 -2.6461e-10 -7.67702e-10 -3.27842e-10 -2.22167 -0.733487 0.20892 -2.03217e-16 0.0 -3.88251e-19 -2.33788 -9.76978 0.53226 -0.0170282 0.937234 -0.123286 -0.442971 2.3807 -3.00389 2.03217e-16 0.0 3.88251e-19 -2.9198 -0.682528 -0.429678 0.024372 4.85765 0.00804092 0.536092 -1.74342 0.557671
10.997 84.4915 -169.548 7.3125 2.0567 0.0303 -3.13151 4.08042 -2.41591 3.02376 -0.738489 -0.690733 -5.02368 0.284865 -1.67833 4.4879 -1.95247 -1.83071 -0.0 0.0 0.0 -0.0 0.0 0.0 1.21036e-13 1.33167e-14 -6.95746e-15 45.6881 0.56579 -1.93166 -6.84429 -2.94809 11.4403 -0.0163 7.71256 1.0832 -1.06213e-09 -3.36059e-12 -6.46209e-10 -1.8423e-09 -3.31295e-12 -1.10399e-09 -1.06213e-09 -3.35742e-12 -6.46222e-10 7.73091 5.47488 0.417314 -1.06213e-09 -3.36028e-12 -6.46208e-10 2.90554 0.965183 0.102902 -1.06213e-09 -3.36037e-12 -6.46208e-10 10.2786 0.731801 0.0259123 -1.06214e-09 -3.35986e-12 -6.46197e-10 2.22167 -0.733487 -0.20892 1.20908e-13 1.33197e-14 -7.30534e-15 -41.7698 15.328 -8.50495 10.3119 -5.49759 -16.7637 0.0020084 2.71083 -0.380951 -5.65293e-10 -1.63399e-09 -6.96892e-10 -9.78631e-10 -2.82464e-09 -1.20282e-09 -5.65299e-10 -1.63399e-09 -6.96881e-10 -7.73091 5.47488 -0.417314 -5.65301e-10 -1.634e-09 -6.96895e-10 -2.90554 0.965183 -0.102902 -5.65299e-10 -1.63399e-09 -6.96893e-10 -10.2786 0.731801 -0.0259123 -5.65285e-10 -1.63399e-09 -6.96904e-10 -2.22167 -0.733487 0.20892 -2.03217e-16 0.0 -3.88251e-19 -5.21466 -16.7673 1.19916 -0.0266094 1.74529 -0.202028 -0.465093 1.69451 -6.342 2.03217e-16 0.0 3.88251e-19 -5.47136 1.77813 -0.903993 0.0524356 10.0326 -0.0381855 0.707567 -6.87318 1.28261
10.8343 84.4814 -168.687 7.2987 2.0549 0.2477 -4.4557 5.94852 -3.53312 4.40257 -1.07648 -1.00753 -7.31891 0.406714 -2.44777 6.50176 -2.83487 -2.67186 -0.0 0.0 0.0 -0.0 0.0 0.0 1.72545e-13 1.93044e-14 -9.94855e-15 66.6396 0.759398 -2.83594 -9.57895 -4.19403 16.686 -0.123022 11.2433 1.59575 -1.50756e-09 -3.75121e-12 -9.23724e-10 -2.61498e-09 -2.9202e-12 -1.57823e-09 -1.50756e-09 -3.74746e-12 -9.23737e-10 7.73091 5.47488 0.417314 -1.50756e-09 -3.7507e-12 -9.23725e-10 2.90554 0.965183 0.102902 -1.50756e-09 -3.75097e-12 -9.23723e-10 10.2786 0.731801 0.0259123 -1.50757e-09 -3.75062e-12 -9.23713e-10 2.22167 -0.733487 -0.20892 1.7245e-13 1.93091e-14 -1.02716e-14 -59.2877 22.0775 -12.9311 13.9866 -7.62923 -24.5752 0.014967 3.94856 -0.5556 -7.96176e-10 -2.30305e-09 -9.83453e-10 -1.37829e-09 -3.98114e-09 -1.69742e-09 -7.96182e-10 -2.30305e-09 -9.83445e-10 -7.73091 5.47488 -0.417314 -7.96186e-10 -2.30306e-09 -9.8346e-10 -2.90554 0.965183 -0.102902 -7.96181e-10 -2.30305e-09 -9.83456e-10 -10.2786 0.731801 -0.0259123 -7.96169e-10 -2.30305e-09 -9.83468e-10 -2.22167 -0.733487 0.20892 -2.03217e-16 0.0 -3.88251e-19 -7.60883 -23.0331 1.80132 -0.0335361 2.56548 -0.270976 -0.548462 1.11794 -9.24007 2.03217e-16 0.0 3.88251e-19 -7.697 4.02028 -1.37163 0.0844661 14.6858 -0.0830262 0.970566 -11.4042 1.94828
10.7276 84.4752 -167.74 7.2229 2.384 0.1655 -5.30866 7.26072 -4.31645 5.36909 -1.31052 -1.22676 -8.91069 0.460574 -2.9847 7.88548 -3.40944 -3.26031 -0.0 0.0 0.0 -0.0 0.0 0.0 1.9435e-13 2.30557e-14 -1.09829e-14 81.2371 0.657165 -3.53454 -11.307 -4.9744 20.2767 -0.235721 13.6956 1.9627 -1.66561e-09 1.73312e-13 -1.04931e-09 -2.88947e-09 4.3351e-12 -1.79334e-09 -1.66561e-09 1.77316e-13 -1.04932e-09 7.73091 5.47488 0.417314 -1.66561e-09 1.73837e-13 -1.04931e-09 2.90554 0.965183 0.102902 -1.66561e-09 1.7344e-13 -1.04931e-09 10.2786 0.731801 0.0259123 -1.66562e-09 1.73738e-13 -1.0493e-09 2.22167 -0.733487 -0.20892 1.94287e-13 2.30621e-14 -1.1281e-14 -70.7949 26.5985 -16.4072 16.2133 -8.88692 -30.1243 0.0282735 4.79427 -0.675384 -8.5258e-10 -2.47903e-09 -1.06377e-09 -1.47574e-09 -4.28502e-09 -1.83603e-09 -8.52586e-10 -2.47903e-09 -1.06376e-09 -7.73091 5.47488 -0.417314 -8.52591e-10 -2.47904e-09 -1.06378e-09 -2.90554 0.965183 -0.102902 -8.52585e-10 -2.47903e-09 -1.06377e-09 -10.2786 0.731801 -0.0259123 -8.52574e-10 -2.47902e-09 -1.06378e-09 -2.22167 -0.733487 0.20892 -2.03217e-16 0.0 -3.88251e-19 -9.1396 -27.4798 2.12126 -0.0377439 3.41602 -0.3153 -0.6273 0.811826 -11.0414 2.03217e-16 0.0 3.88251e-19 -9.17828 5.71706 -1.81896 0.111005 18.0348 -0.121754 1.21187 -14.4448 2.42396
10.6029 84.434 -166.691 7.0363 2.6845 0.0915 -5.5746 7.81833 -4.61137 5.75252 -1.3837 -1.30726 -9.50114 0.3596 -3.20003 8.41632 -3.53721 -3.49813 -0.0 0.0 0.0 -0.0 0.0 0.0 1.68078e-13 2.28002e-14 -1.16246e-14 86.9371 0.0502162 -3.9173 -11.8752 -5.21108 21.5263 -0.283999 14.5198 2.0891 -1.36052e-09 -2.65752e-11 -9.36315e-10 -2.36115e-09 -4.24774e-11 -1.60173e-09 -1.36051e-09 -2.65715e-11 -9.36325e-10 7.73091 5.47488 0.417314 -1.36052e-09 -2.65751e-11 -9.36319e-10 2.90554 0.965183 0.102902 -1.36051e-09 -2.65755e-11 -9.36314e-10 10.2786 0.731801 0.0259123 -1.36052e-09 -2.65751e-11 -9.36306e-10 2.22167 -0.733487 -0.20892 1.68051e-13 2.28086e-14 -1.18991e-14 -75.0487 28.355 -18.0244 17.0536 -9.35284 -32.4071 0.0337711 5.07534 -0.715306 -6.15825e-10 -1.84751e-09 -8.31223e-10 -1.06556e-09 -3.19288e-09 -1.43484e-09 -6.15831e-10 -1.84751e-09 -8.31216e-10 -7.73091 5.47488 -0.417314 -6.15834e-10 -1.84752e-09 -8.31232e-10 -2.90554 0.965183 -0.102902 -6.15832e-10 -1.84751e-09 -8.31228e-10 -10.2786 0.731801 -0.0259123 -6.1582e-10 -1.84751e-09 -8.31239e-10 -2.22167 -0.733487 0.20892 -2.03217e-16 0.0 -3.88251e-19 -9.65689 -29.3631 1.90812 -0.0407771 4.19549 -0.328265 -0.639845 0.854398 -11.2826 2.03217e-16 0.0 3.88251e-19 -9.64206 6.64284 -2.25521 0.122862 19.5474 -0.148592 1.30748 -15.4123 2.60309
10.4818 84.4193 -165.682 7.0103 2.8534 0.1666 -5.43986 7.8381 -4.55454 5.72082 -1.34274 -1.28875 -9.37777 0.150923 -3.18549 8.34382 -3.34717 -3.48479 -0.0 0.0 0.0 -0.0 0.0 0.0 1.07776e-13 1.97242e-14 -1.18743e-14 86.2782 -0.912624 -4.0767 -11.6652 -5.08754 21.0981 -0.27046 14.1876 2.0392 -7.27498e-10 -7.34848e-11 -6.54138e-10 -1.26443e-09 -1.24878e-10 -1.1217e-09 -7.27495e-10 -7.34816e-11 -6.54144e-10 7.73091 5.47488 0.417314 -7.27499e-10 -7.34853e-11 -6.54143e-10 2.90554 0.965183 0.102902 -7.27491e-10 -7.34858e-11 -6.54137e-10 10.2786 0.731801 0.0259123 -7.27503e-10 -7.34851e-11 -6.54129e-10 2.22167 -0.733487 -0.20892 1.07785e-13 1.9735e-14 -1.21259e-14 -74.4455 28.2431 -18.1248 17.0425 -9.37979 -32.3332 0.0319624 4.95389 -0.698084 -1.71999e-10 -6.44796e-10 -3.76354e-10 -2.96816e-10 -1.11323e-09 -6.50055e-10 -1.72005e-10 -6.44796e-10 -3.76344e-10 -7.73091 5.47488 -0.417314 -1.72004e-10 -6.44804e-10 -3.7636e-10 -2.90554 0.965183 -0.102902 -1.72008e-10 -6.44798e-10 -3.76359e-10 -10.2786 0.731801 -0.0259123 -1.71994e-10 -6.44798e-10 -3.76368e-10 -2.22167 -0.733487 0.20892 -2.03217e-16 0.0 -3.88251e-19 -9.47929 -29.4153 1.29677 -0.0438018 4.92961 -0.318634 -0.602195 1.14699 -10.4106 2.03217e-16 0.0 3.88251e-19 -9.38841 7.01839 -2.68112 0.121883 19.7487 -0.166101 1.27294 -14.9 2.56088
10.3242 84.2872 -164.654 6.8936 2.8451 0.1344 -5.15253 7.61555 -4.37255 5.53874 -1.28084 -1.23387 -9.00058 -0.00506982 -3.07267 8.02694 -3.05824 -3.36296 -0.0 0.0 0.0 -0.0 0.0 0.0 4.42476e-14 1.69217e-14 -8.2119e-15 83.0584 -1.87152 -4.1923 -11.1375 -4.81689 19.9992 -0.239622 13.5863 1.94793 -6.06078e-11 -6.97159e-11 -3.45694e-10 -1.08841e-10 -1.19632e-10 -5.9661e-10 -6.06018e-11 -6.97134e-11 -3.45696e-10 7.73091 5.47488 0.417314 -6.06085e-11 -6.9717e-11 -3.457e-10 2.90554 0.965183 0.102902 -6.05978e-11 -6.97175e-11 -3.45694e-10 10.2786 0.731801 0.0259123 -6.06122e-11 -6.97165e-11 -3.45687e-10 2.22167 -0.733487 -0.20892 4.42863e-14 1.69345e-14 -8.43903e-15 -72.0059 27.3537 -17.4962 16.6938 -9.23366 -31.3092 0.0277598 4.69692 -0.661642 2.76435e-10 5.98907e-10 1.28857e-10 4.80095e-10 1.03769e-09 2.2192e-10 2.76428e-10 5.98906e-10 1.28871e-10 -7.73091 5.47488 -0.417314 2.76433e-10 5.989e-10 1.28856e-10 -2.90554 0.965183 -0.102902 2.76423e-10 5.98901e-10 1.28854e-10 -10.2786 0.731801 -0.0259123 2.76439e-10 5.98901e-10 1.28846e-10 -2.22167 -0.733487 0.20892 -2.03217e-16 0.0 -3.88251e-19 -8.96846 -28.769 0.616329 -0.0464931 5.82732 -0.294837 -0.553875 1.5795 -9.13379 2.03217e-16 0.0 3.88251e-19 -8.86003 7.18678 -3.06922 0.114643 19.4424 -0.181479 1.18755 -13.7821 2.42615
